<mxfile host="app.diagrams.net" modified="2024-04-24T10:37:14.347Z" agent="Mozilla/5.0 (Windows NT 10.0; Win64; x64) AppleWebKit/537.36 (KHTML, like Gecko) Chrome/124.0.0.0 Safari/537.36" etag="ZqE88T8VS4NZgWlgGkem" version="24.2.8" type="device">
  <diagram name="Page-1" id="X24kjCYl4chE1X0ALfGU">
    <mxGraphModel dx="608" dy="1085" grid="1" gridSize="10" guides="1" tooltips="1" connect="1" arrows="1" fold="1" page="1" pageScale="1" pageWidth="850" pageHeight="1100" math="0" shadow="0">
      <root>
        <mxCell id="0" />
        <mxCell id="1" parent="0" />
        <mxCell id="IWqwc0zPfB5A9naW6DhN-9" value="" style="edgeStyle=orthogonalEdgeStyle;rounded=0;orthogonalLoop=1;jettySize=auto;html=1;" parent="1" target="IWqwc0zPfB5A9naW6DhN-8" edge="1">
          <mxGeometry relative="1" as="geometry">
            <mxPoint x="150" y="690" as="sourcePoint" />
          </mxGeometry>
        </mxCell>
        <mxCell id="IWqwc0zPfB5A9naW6DhN-8" value="" style="ellipse;html=1;shape=endState;fillColor=#000000;strokeColor=#ff0000;" parent="1" vertex="1">
          <mxGeometry x="130" y="730" width="30" height="30" as="geometry" />
        </mxCell>
        <mxCell id="Hi9cztOsXVtGHwQsmJno-4" value="Pool" style="swimlane;childLayout=stackLayout;resizeParent=1;resizeParentMax=0;startSize=20;html=1;" vertex="1" parent="1">
          <mxGeometry x="80" y="10" width="680" height="1450" as="geometry" />
        </mxCell>
        <mxCell id="Hi9cztOsXVtGHwQsmJno-5" value="Patient" style="swimlane;startSize=20;html=1;" vertex="1" parent="Hi9cztOsXVtGHwQsmJno-4">
          <mxGeometry y="20" width="190" height="1430" as="geometry" />
        </mxCell>
        <mxCell id="bNPx3kuCwpVUXOduSung-5" value="" style="edgeStyle=orthogonalEdgeStyle;html=1;verticalAlign=bottom;endArrow=open;endSize=8;strokeColor=#ff0000;rounded=0;" parent="Hi9cztOsXVtGHwQsmJno-5" source="bNPx3kuCwpVUXOduSung-4" edge="1">
          <mxGeometry relative="1" as="geometry">
            <mxPoint x="95" y="100" as="targetPoint" />
          </mxGeometry>
        </mxCell>
        <mxCell id="bNPx3kuCwpVUXOduSung-4" value="" style="ellipse;html=1;shape=startState;fillColor=#000000;strokeColor=#ff0000;" parent="Hi9cztOsXVtGHwQsmJno-5" vertex="1">
          <mxGeometry x="80" y="40" width="30" height="30" as="geometry" />
        </mxCell>
        <mxCell id="Hi9cztOsXVtGHwQsmJno-2" value="Start" style="rounded=1;whiteSpace=wrap;html=1;arcSize=50;" vertex="1" parent="Hi9cztOsXVtGHwQsmJno-5">
          <mxGeometry x="50" y="100" width="90" height="20" as="geometry" />
        </mxCell>
        <mxCell id="Hi9cztOsXVtGHwQsmJno-8" style="edgeStyle=orthogonalEdgeStyle;rounded=0;orthogonalLoop=1;jettySize=auto;html=1;exitX=0.5;exitY=1;exitDx=0;exitDy=0;" edge="1" parent="Hi9cztOsXVtGHwQsmJno-5" source="Hi9cztOsXVtGHwQsmJno-2" target="Hi9cztOsXVtGHwQsmJno-2">
          <mxGeometry relative="1" as="geometry" />
        </mxCell>
        <mxCell id="Hi9cztOsXVtGHwQsmJno-3" value="Request to Discharge Patient" style="rounded=1;whiteSpace=wrap;html=1;arcSize=50;" vertex="1" parent="Hi9cztOsXVtGHwQsmJno-5">
          <mxGeometry x="30" y="160" width="130" height="40" as="geometry" />
        </mxCell>
        <mxCell id="Hi9cztOsXVtGHwQsmJno-17" value="Check for Payment" style="rounded=1;whiteSpace=wrap;html=1;arcSize=50;" vertex="1" parent="Hi9cztOsXVtGHwQsmJno-5">
          <mxGeometry x="30" y="250" width="130" height="40" as="geometry" />
        </mxCell>
        <mxCell id="Hi9cztOsXVtGHwQsmJno-18" style="edgeStyle=orthogonalEdgeStyle;rounded=0;orthogonalLoop=1;jettySize=auto;html=1;exitX=0.5;exitY=1;exitDx=0;exitDy=0;" edge="1" parent="Hi9cztOsXVtGHwQsmJno-5" source="Hi9cztOsXVtGHwQsmJno-17" target="Hi9cztOsXVtGHwQsmJno-17">
          <mxGeometry relative="1" as="geometry" />
        </mxCell>
        <mxCell id="Hi9cztOsXVtGHwQsmJno-20" value="" style="endArrow=classic;html=1;rounded=0;exitX=0.369;exitY=0.995;exitDx=0;exitDy=0;exitPerimeter=0;" edge="1" parent="Hi9cztOsXVtGHwQsmJno-5" source="Hi9cztOsXVtGHwQsmJno-3">
          <mxGeometry width="50" height="50" relative="1" as="geometry">
            <mxPoint x="80" y="230" as="sourcePoint" />
            <mxPoint x="230" y="230" as="targetPoint" />
            <Array as="points">
              <mxPoint x="78" y="230" />
            </Array>
          </mxGeometry>
        </mxCell>
        <mxCell id="Hi9cztOsXVtGHwQsmJno-6" value="System" style="swimlane;startSize=20;html=1;" vertex="1" parent="Hi9cztOsXVtGHwQsmJno-4">
          <mxGeometry x="190" y="20" width="240" height="1430" as="geometry" />
        </mxCell>
        <mxCell id="Hi9cztOsXVtGHwQsmJno-15" value="DIsplay List of Services" style="rounded=1;whiteSpace=wrap;html=1;arcSize=50;" vertex="1" parent="Hi9cztOsXVtGHwQsmJno-6">
          <mxGeometry x="50" y="90" width="130" height="40" as="geometry" />
        </mxCell>
        <mxCell id="Hi9cztOsXVtGHwQsmJno-19" value="" style="endArrow=classic;html=1;rounded=0;exitX=0.5;exitY=1;exitDx=0;exitDy=0;entryX=0;entryY=0.5;entryDx=0;entryDy=0;" edge="1" parent="Hi9cztOsXVtGHwQsmJno-6" target="Hi9cztOsXVtGHwQsmJno-15">
          <mxGeometry width="50" height="50" relative="1" as="geometry">
            <mxPoint x="-50" y="110" as="sourcePoint" />
            <mxPoint x="65" y="100" as="targetPoint" />
            <Array as="points" />
          </mxGeometry>
        </mxCell>
        <mxCell id="Hi9cztOsXVtGHwQsmJno-22" value="Display Patient Information" style="rounded=1;whiteSpace=wrap;html=1;arcSize=50;" vertex="1" parent="Hi9cztOsXVtGHwQsmJno-6">
          <mxGeometry x="40" y="210" width="130" height="40" as="geometry" />
        </mxCell>
        <mxCell id="Hi9cztOsXVtGHwQsmJno-24" value="" style="endArrow=classic;html=1;rounded=0;exitX=0.5;exitY=1;exitDx=0;exitDy=0;entryX=1;entryY=0.75;entryDx=0;entryDy=0;" edge="1" parent="Hi9cztOsXVtGHwQsmJno-6">
          <mxGeometry width="50" height="50" relative="1" as="geometry">
            <mxPoint x="105" y="250" as="sourcePoint" />
            <mxPoint x="-40" y="310" as="targetPoint" />
            <Array as="points">
              <mxPoint x="105" y="310" />
            </Array>
          </mxGeometry>
        </mxCell>
        <mxCell id="Hi9cztOsXVtGHwQsmJno-7" value="Executives" style="swimlane;startSize=20;html=1;" vertex="1" parent="Hi9cztOsXVtGHwQsmJno-4">
          <mxGeometry x="430" y="20" width="250" height="1430" as="geometry" />
        </mxCell>
        <mxCell id="Hi9cztOsXVtGHwQsmJno-16" value="" style="endArrow=classic;html=1;rounded=0;exitX=0.5;exitY=1;exitDx=0;exitDy=0;entryX=1;entryY=0.75;entryDx=0;entryDy=0;" edge="1" parent="Hi9cztOsXVtGHwQsmJno-4" source="Hi9cztOsXVtGHwQsmJno-15" target="Hi9cztOsXVtGHwQsmJno-3">
          <mxGeometry width="50" height="50" relative="1" as="geometry">
            <mxPoint x="300" y="230" as="sourcePoint" />
            <mxPoint x="160" y="290" as="targetPoint" />
            <Array as="points">
              <mxPoint x="305" y="210" />
            </Array>
          </mxGeometry>
        </mxCell>
      </root>
    </mxGraphModel>
  </diagram>
</mxfile>
